<?xml version="1.0" encoding="utf-8"?>
<!-- Generator: Adobe Illustrator 22.0.1, SVG Export Plug-In . SVG Version: 6.00 Build 0)  -->
<svg version="1.1" xmlns="http://www.w3.org/2000/svg" xmlns:xlink="http://www.w3.org/1999/xlink" x="0px" y="0px"
	 viewBox="0 0 364.7 52" style="enable-background:new 0 0 364.7 52;" xml:space="preserve">
<style type="text/css">
	.st0{display:none;clip-path:url(#SVGID_2_);fill:#3A78C9;}
	.st1{clip-path:url(#SVGID_2_);}
	.st2{clip-path:url(#SVGID_4_);}
	.st3{fill:#3A78C9;}
</style>
<g id="Layer_1">
	<g>
		<defs>
			<rect id="SVGID_1_" width="193" height="52"/>
		</defs>
		<clipPath id="SVGID_2_">
			<use xlink:href="#SVGID_1_"  style="overflow:visible;"/>
		</clipPath>
		<path class="st0" d="M64,20.6h-6.9v-5h20.1v5h-6.8V38H64V20.6z M90.5,38.4c-2.4,0-4.5-0.5-6.4-1.5c-1.9-1-3.4-2.4-4.4-4.2
			c-1.1-1.8-1.6-3.8-1.6-6s0.5-4.2,1.6-6c1.1-1.8,2.6-3.2,4.4-4.2c1.9-1,4-1.5,6.4-1.5c2.4,0,4.5,0.5,6.4,1.5c1.9,1,3.4,2.4,4.4,4.2
			c1.1,1.8,1.6,3.8,1.6,6s-0.5,4.2-1.6,6c-1.1,1.8-2.5,3.2-4.4,4.2C95,37.9,92.9,38.4,90.5,38.4z M90.5,33.2c1.1,0,2.2-0.3,3.1-0.8
			c0.9-0.5,1.6-1.3,2.2-2.2c0.5-1,0.8-2.1,0.8-3.4c0-1.3-0.3-2.4-0.8-3.3c-0.5-1-1.3-1.7-2.2-2.3c-0.9-0.5-1.9-0.8-3.1-0.8
			c-1.1,0-2.2,0.3-3.1,0.8c-0.9,0.5-1.6,1.3-2.2,2.3c-0.5,1-0.8,2.1-0.8,3.3c0,1.3,0.3,2.4,0.8,3.4c0.5,1,1.3,1.7,2.2,2.2
			C88.4,32.9,89.4,33.2,90.5,33.2z M116.6,38.4c-3.3,0-5.9-0.9-7.8-2.7c-1.8-1.8-2.8-4.4-2.8-7.7V15.6h6.3v12.2
			c0,3.6,1.4,5.4,4.3,5.4c2.8,0,4.2-1.8,4.2-5.4V15.6h6.2V28c0,3.3-0.9,5.9-2.8,7.7C122.5,37.5,120,38.4,116.6,38.4z M141.3,32h-3.5
			v6h-6.3V15.6h10.2c2,0,3.8,0.3,5.3,1c1.5,0.7,2.6,1.6,3.5,2.9c0.8,1.2,1.2,2.7,1.2,4.4c0,1.6-0.4,3-1.2,4.3
			c-0.7,1.2-1.8,2.1-3.2,2.8l4.8,7h-6.8L141.3,32z M145.3,23.9c0-1-0.3-1.9-1-2.4c-0.7-0.6-1.6-0.9-2.9-0.9h-3.5v6.6h3.5
			c1.3,0,2.3-0.3,2.9-0.8C144.9,25.7,145.3,24.9,145.3,23.9z M155.1,15.6h6.3V33h10.7v5h-17V15.6z M184.4,30v8h-6.3v-8.1l-8.5-14.3
			h6.7l5.3,8.9l5.3-8.9h6.1L184.4,30z"/>
		<g class="st1">
			<defs>
				<rect id="SVGID_3_" x="2" y="-2" transform="matrix(0.7071 -0.7071 0.7071 0.7071 -8.7696 26.8284)" width="52" height="52"/>
			</defs>
			<clipPath id="SVGID_4_">
				<use xlink:href="#SVGID_3_"  style="overflow:visible;"/>
			</clipPath>
			<g class="st2">
				<path class="st3" d="M38,43.9L36,45.8c-0.2,0.2-0.4,0.3-0.7,0.4c-0.3,0.1-0.5,0.1-0.8,0c-0.3-0.1-0.5-0.2-0.7-0.4
					c-0.2-0.2-0.4-0.4-0.5-0.7l-5.6-14.8l-7.1,6.8l0.5,5.6c0.1,1.1,0,1.7-1,2.7L19,46.8c-0.2,0.2-0.4,0.4-0.7,0.5
					c-0.3,0.1-0.6,0.1-0.8,0.1c-0.4-0.1-1-0.3-1.4-1l-3.7-6.5c0,0-0.1-0.1-0.1-0.2c0,0,0,0,0,0c-0.1,0-0.1,0-0.2-0.1l-6.6-3.7
					c-0.7-0.4-0.9-0.9-1-1.3c0-0.3,0-0.5,0.1-0.8c0.1-0.3,0.2-0.5,0.4-0.7l1.4-1.4c0.7-0.7,1.8-1.1,2.7-1l5.5,0.5l6.9-7.1L6.7,18.6
					c-0.3-0.1-0.5-0.3-0.7-0.5c-0.2-0.2-0.3-0.5-0.4-0.7c-0.1-0.3,0-0.5,0-0.8C5.8,16.4,6,16.1,6.2,16L8.1,14c0.3-0.3,0.6-0.5,1-0.6
					c0.4-0.1,0.7-0.2,1.1-0.1l19.9,1.9l4-4.3c0.3-0.3,1.1-1.2,1.3-1.4c4-4,7.6-5,9.8-2.9c0.7,0.7,1.7,2.2,0.7,4.8
					c-0.6,1.5-1.8,3.2-3.5,5c-0.2,0.2-1,1-1.4,1.3l-4.3,4l1.9,19.9c0,0.4,0,0.8-0.1,1.1C38.4,43.3,38.2,43.6,38,43.9L38,43.9z"/>
			</g>
		</g>
	</g>
</g>
<g id="Layer_2">
	<g>
		<path class="st3" d="M77.4,19.8l-3.8,4.4c-1.4-1.8-3.4-2.9-5.2-2.9c-3,0-5.2,2.4-5.2,5.6s2.3,5.7,5.2,5.7c1.7,0,3.7-1,5.2-2.5
			l3.8,4c-2.4,2.6-6,4.2-9.3,4.2c-6.7,0-11.6-4.8-11.6-11.3c0-6.4,5-11.1,11.8-11.1C71.7,15.9,75.2,17.4,77.4,19.8z"/>
		<path class="st3" d="M85.9,21.1v3.4h10.4v5H85.9V33h11.7v5H79.4V16.1h17.9v5H85.9z"/>
		<path class="st3" d="M116.4,32.6V38h-15.7V16.1h6.5v16.5H116.4z"/>
		<path class="st3" d="M129.9,21.3V38h-6.5V21.3H117v-5.2h19.3v5.2H129.9z"/>
		<path class="st3" d="M138.3,38V16.1h6.5V38H138.3z"/>
		<path class="st3" d="M168.1,19.8l-3.8,4.4c-1.4-1.8-3.4-2.9-5.2-2.9c-3,0-5.2,2.4-5.2,5.6s2.3,5.7,5.2,5.7c1.7,0,3.7-1,5.2-2.5
			l3.8,4c-2.4,2.6-6,4.2-9.3,4.2c-6.7,0-11.6-4.8-11.6-11.3c0-6.4,5-11.1,11.8-11.1C162.4,15.9,165.9,17.4,168.1,19.8z"/>
		<path class="st3" d="M191,30.8c0,4.8-3.1,7.5-8,7.5c-3.3,0-6-1.3-8.1-3.7l3-4.3c1.7,1.7,3.4,2.5,4.6,2.5c1.2,0,1.9-0.8,1.9-2.2
			v-9.3H177v-5.2h14V30.8z"/>
		<path class="st3" d="M216.9,27.1c0,6.4-5.1,11.3-11.9,11.3S193,33.5,193,27.1c0-6.4,5.1-11.1,11.9-11.1S216.9,20.6,216.9,27.1z
			 M199.7,27.1c0,3.3,2.5,5.8,5.4,5.8c2.9,0,5.2-2.5,5.2-5.8c0-3.3-2.3-5.7-5.2-5.7C202.2,21.4,199.7,23.8,199.7,27.1z"/>
		<path class="st3" d="M239.6,28.8c0,5.8-4,9.5-10.2,9.5c-6.3,0-10.4-3.7-10.4-9.5V16.1h6.5v12.7c0,2.5,1.7,4.1,3.9,4.1
			c2.2,0,3.7-1.5,3.7-4.1V16.1h6.5V28.8z"/>
		<path class="st3" d="M252.9,32.1h-3.4V38H243V16.1h10.2c5.9,0,9.3,2.8,9.3,7.8c0,3.3-1.3,5.6-3.7,7l4.4,7.2h-7.4L252.9,32.1z
			 M253.2,27.1c1.9,0,3.1-1.1,3.1-3c0-1.9-1.1-3-3.1-3h-3.7v6H253.2z"/>
		<path class="st3" d="M280.9,38l-9.3-12.2V38h-6V16.1h5.6l9.3,12.3V16.1h5.9V38H280.9z"/>
		<path class="st3" d="M296.7,21.1v3.4H307v5h-10.4V33h11.7v5h-18.2V16.1h17.9v5H296.7z"/>
		<path class="st3" d="M324,38h-6.5v-6.8l-8-15.1h6.5l4.8,8.9l4.7-8.9h6.5l-7.9,15V38z"/>
		<path class="st3" d="M351.6,18.4l-2.4,5c-2.3-1.3-5.4-2.4-7.3-2.4c-1.1,0-1.8,0.4-1.8,1.2c0,3.2,11.4,1.3,11.4,9.2
			c0,4.7-4.1,6.9-9,6.9c-3.7,0-7.8-1.3-10.5-3.5l2.4-4.9c2.3,1.9,5.9,3.3,8.2,3.3c1.4,0,2.3-0.5,2.3-1.5c0-3.3-11.4-1.2-11.4-8.9
			c0-4.2,3.6-6.9,9.1-6.9C345.8,15.8,349.3,16.8,351.6,18.4z"/>
	</g>
</g>
</svg>
