<?xml version="1.0" encoding="utf-8"?>
<!-- Generator: Adobe Illustrator 22.0.1, SVG Export Plug-In . SVG Version: 6.00 Build 0)  -->
<svg version="1.1" xmlns="http://www.w3.org/2000/svg" xmlns:xlink="http://www.w3.org/1999/xlink" x="0px" y="0px"
	 viewBox="0 0 365.7 52" style="enable-background:new 0 0 365.7 52;" xml:space="preserve">
<style type="text/css">
	.st0{clip-path:url(#SVGID_2_);}
	.st1{display:none;fill:#3081D8;}
	.st2{clip-path:url(#SVGID_4_);}
	.st3{fill:#FFFFFF;}
</style>
<g id="Layer_1">
	<g>
		<defs>
			<rect id="SVGID_1_" width="193" height="52"/>
		</defs>
		<clipPath id="SVGID_2_">
			<use xlink:href="#SVGID_1_"  style="overflow:visible;"/>
		</clipPath>
		<g class="st0">
			<path class="st1" d="M64,20.6h-6.9v-5h20.1v5h-6.8V38H64V20.6z M90.5,38.4c-2.4,0-4.5-0.5-6.4-1.5c-1.9-1-3.4-2.4-4.4-4.2
				c-1.1-1.8-1.6-3.8-1.6-6s0.5-4.2,1.6-6c1.1-1.8,2.6-3.2,4.4-4.2c1.9-1,4-1.5,6.4-1.5c2.4,0,4.5,0.5,6.4,1.5
				c1.9,1,3.4,2.4,4.4,4.2c1.1,1.8,1.6,3.8,1.6,6s-0.5,4.2-1.6,6c-1.1,1.8-2.5,3.2-4.4,4.2C95,37.9,92.9,38.4,90.5,38.4z M90.5,33.2
				c1.1,0,2.2-0.3,3.1-0.8c0.9-0.5,1.6-1.3,2.2-2.2c0.5-1,0.8-2.1,0.8-3.4c0-1.3-0.3-2.4-0.8-3.3c-0.5-1-1.3-1.7-2.2-2.3
				c-0.9-0.5-1.9-0.8-3.1-0.8c-1.1,0-2.2,0.3-3.1,0.8c-0.9,0.5-1.6,1.3-2.2,2.3c-0.5,1-0.8,2.1-0.8,3.3c0,1.3,0.3,2.4,0.8,3.4
				c0.5,1,1.3,1.7,2.2,2.2C88.4,32.9,89.4,33.2,90.5,33.2z M116.6,38.4c-3.3,0-5.9-0.9-7.8-2.7c-1.8-1.8-2.8-4.4-2.8-7.7V15.6h6.3
				v12.2c0,3.6,1.4,5.4,4.3,5.4c2.8,0,4.2-1.8,4.2-5.4V15.6h6.2V28c0,3.3-0.9,5.9-2.8,7.7C122.5,37.5,120,38.4,116.6,38.4z
				 M141.3,32h-3.5v6h-6.3V15.6h10.2c2,0,3.8,0.3,5.3,1c1.5,0.7,2.6,1.6,3.5,2.9c0.8,1.2,1.2,2.7,1.2,4.4c0,1.6-0.4,3-1.2,4.3
				c-0.7,1.2-1.8,2.1-3.2,2.8l4.8,7h-6.8L141.3,32z M145.3,23.9c0-1-0.3-1.9-1-2.4c-0.7-0.6-1.6-0.9-2.9-0.9h-3.5v6.6h3.5
				c1.3,0,2.3-0.3,2.9-0.8C144.9,25.7,145.3,24.9,145.3,23.9z M155.1,15.6h6.3V33h10.7v5h-17V15.6z M184.4,30v8h-6.3v-8.1l-8.5-14.3
				h6.7l5.3,8.9l5.3-8.9h6.1L184.4,30z"/>
			<g>
				<defs>
					<rect id="SVGID_3_" x="2" y="-2" transform="matrix(0.7071 -0.7071 0.7071 0.7071 -8.7696 26.8284)" width="52" height="52"/>
				</defs>
				<clipPath id="SVGID_4_">
					<use xlink:href="#SVGID_3_"  style="overflow:visible;"/>
				</clipPath>
				<g class="st2">
					<path class="st3" d="M38,43.9L36,45.8c-0.2,0.2-0.4,0.3-0.7,0.4c-0.3,0.1-0.5,0.1-0.8,0c-0.3-0.1-0.5-0.2-0.7-0.4
						c-0.2-0.2-0.4-0.4-0.5-0.7l-5.6-14.8l-7.1,6.8l0.5,5.6c0.1,1.1,0,1.7-1,2.7L19,46.8c-0.2,0.2-0.4,0.4-0.7,0.5
						c-0.3,0.1-0.6,0.1-0.8,0.1c-0.4-0.1-1-0.3-1.4-1l-3.7-6.5c0,0-0.1-0.1-0.1-0.2c0,0,0,0,0,0c-0.1,0-0.1,0-0.2-0.1l-6.6-3.7
						c-0.7-0.4-0.9-0.9-1-1.3c0-0.3,0-0.5,0.1-0.8c0.1-0.3,0.2-0.5,0.4-0.7l1.4-1.4c0.7-0.7,1.8-1.1,2.7-1l5.5,0.5l6.9-7.1L6.7,18.6
						c-0.3-0.1-0.5-0.3-0.7-0.5c-0.2-0.2-0.3-0.5-0.4-0.7c-0.1-0.3,0-0.5,0-0.8C5.8,16.4,6,16.1,6.2,16L8.1,14
						c0.3-0.3,0.6-0.5,1-0.6c0.4-0.1,0.7-0.2,1.1-0.1l19.9,1.9l4-4.3c0.3-0.3,1.1-1.2,1.3-1.4c4-4,7.6-5,9.8-2.9
						c0.7,0.7,1.7,2.2,0.7,4.8c-0.6,1.5-1.8,3.2-3.5,5c-0.2,0.2-1,1-1.4,1.3l-4.3,4l1.9,19.9c0,0.4,0,0.8-0.1,1.1
						C38.4,43.3,38.2,43.6,38,43.9L38,43.9z"/>
				</g>
			</g>
		</g>
	</g>
</g>
<g id="Layer_2">
	<g>
		<path class="st3" d="M79,19.4l-3.3,3.9c-1.5-1.8-3.7-2.9-5.7-2.9c-3.6,0-6.3,2.8-6.3,6.5c0,3.8,2.7,6.6,6.3,6.6
			c1.9,0,4.1-1,5.7-2.6l3.3,3.5c-2.4,2.5-6,4.1-9.3,4.1C63,38.6,58,33.6,58,27c0-6.5,5.2-11.4,12-11.4C73.3,15.6,76.8,17.1,79,19.4z
			"/>
		<path class="st3" d="M87.4,20.3v4.5h10.7v4.5H87.4v4.5h12.2v4.5h-18V15.8h17.6v4.5H87.4z"/>
		<path class="st3" d="M118.6,33.5v4.8h-15.3V15.8h5.7v17.7H118.6z"/>
		<path class="st3" d="M131.7,20.4v17.9H126V20.4h-6.7v-4.6h19.2v4.6H131.7z"/>
		<path class="st3" d="M140.9,38.3V15.8h5.7v22.5H140.9z"/>
		<path class="st3" d="M170.7,19.4l-3.3,3.9c-1.5-1.8-3.7-2.9-5.7-2.9c-3.6,0-6.3,2.8-6.3,6.5c0,3.8,2.7,6.6,6.3,6.6
			c1.9,0,4.1-1,5.7-2.6l3.3,3.5c-2.4,2.5-6,4.1-9.3,4.1c-6.8,0-11.8-5-11.8-11.6c0-6.5,5.2-11.4,12-11.4
			C165,15.6,168.5,17.1,170.7,19.4z"/>
		<path class="st3" d="M193.9,31c0,4.8-3,7.5-7.8,7.5c-3.2,0-5.7-1.3-7.7-3.6l2.6-3.8c1.6,1.7,3.4,2.5,4.7,2.5
			c1.5,0,2.4-0.9,2.4-2.8V20.4h-7.7v-4.6h13.5V31z"/>
		<path class="st3" d="M220.8,27c0,6.6-5.2,11.5-12.2,11.5c-6.9,0-12.1-4.9-12.1-11.5c0-6.6,5.2-11.4,12.1-11.4
			C215.6,15.6,220.8,20.5,220.8,27z M202.4,27.1c0,3.8,2.9,6.7,6.4,6.7c3.5,0,6.2-2.9,6.2-6.7s-2.8-6.6-6.2-6.6
			S202.4,23.3,202.4,27.1z"/>
		<path class="st3" d="M244.1,28.9c0,5.9-4,9.7-10.2,9.7c-6.3,0-10.4-3.8-10.4-9.7v-13h5.7v13c0,3.1,2,4.9,4.7,4.9
			c2.7,0,4.5-1.9,4.5-4.9v-13h5.7V28.9z"/>
		<path class="st3" d="M258.4,32h-0.2h-4.3v6.3h-5.7V15.8h10.1c5.9,0,9.3,2.8,9.3,7.8c0,3.4-1.4,5.9-4.1,7.2l4.7,7.4h-6.5L258.4,32z
			 M258.3,27.5c2.5,0,3.9-1.3,3.9-3.6c0-2.3-1.4-3.5-3.9-3.5h-4.3v7.2H258.3z"/>
		<path class="st3" d="M287.2,38.3l-10.3-13.8v13.8h-5.4V15.8h5l10.4,13.9V15.8h5.3v22.5H287.2z"/>
		<path class="st3" d="M302.4,20.3v4.5h10.7v4.5h-10.7v4.5h12.2v4.5h-18V15.8h17.6v4.5H302.4z"/>
		<path class="st3" d="M329.9,38.3h-5.7v-7.1l-8.3-15.4h5.7l5.4,9.8l5.3-9.8h5.7l-8.2,15.2V38.3z"/>
		<path class="st3" d="M357.7,18.1l-2.2,4.5c-2.4-1.4-5.4-2.3-7.2-2.3c-1.5,0-2.5,0.5-2.5,1.6c0,3.9,11.9,1.7,11.9,9.8
			c0,4.5-4,6.9-9,6.9c-3.8,0-7.6-1.4-10.3-3.6l2.2-4.4c2.3,2,5.8,3.4,8.1,3.4c1.8,0,2.9-0.7,2.9-2c0-4-11.9-1.6-11.9-9.6
			c0-4.1,3.6-6.8,9-6.8C352.1,15.6,355.4,16.6,357.7,18.1z"/>
	</g>
</g>
</svg>
